<svg width="155" height="207" viewBox="0 0 155 207" fill="none" xmlns="http://www.w3.org/2000/svg">
<g clip-path="url(#clip0_51_169)">
<path d="M154.235 40.6804L140.184 190.351L77.0232 207L14.0363 190.374L0 40.6804H154.235Z" fill="#264DE4"/>
<path d="M128.155 180.82L140.162 52.92H77.1177V194.274L128.155 180.82Z" fill="#2965F1"/>
<path d="M32.178 108.439L33.9086 126.798H77.1176V108.439H32.178Z" fill="#EBEBEB"/>
<path d="M77.1176 71.2795H77.0508H28.7007L30.4559 89.6391H77.1176V71.2795Z" fill="#EBEBEB"/>
<path d="M77.1175 175.222V156.12L77.0329 156.142L55.5288 150.621L54.1541 135.978H43.7047H34.7712L37.4764 164.805L77.0287 175.245L77.1175 175.222Z" fill="#EBEBEB"/>
<path d="M36.2983 0H59.6845V9.29883H46.078V18.5977H59.6845V27.8965H36.2983V0Z" fill="white"/>
<path d="M64.3616 0H87.7477V8.08594H74.1412V9.70312H87.7477V28.3008H64.3616V19.8105H77.968V18.1934H64.3616V0Z" fill="white"/>
<path d="M92.4248 0H115.811V8.08594H102.204V9.70312H115.811V28.3008H92.4248V19.8105H106.031V18.1934H92.4248V0Z" fill="white"/>
<path d="M100.827 126.798L98.586 150.609L77.0508 156.136V175.236L116.635 164.805L116.925 161.703L121.462 113.369L121.933 108.439L125.419 71.2795H77.0508V89.6391H104.259L102.502 108.439H77.0508V126.798H100.827Z" fill="white"/>
</g>
<defs>
<clipPath id="clip0_51_169">
<rect width="154.235" height="207" fill="white"/>
</clipPath>
</defs>
</svg>
