<svg width="219" height="207" viewBox="0 0 219 207" fill="none" xmlns="http://www.w3.org/2000/svg">
<path d="M46.3665 0H56.2043V9.21797H65.2723V0H75.1102V27.8965H65.2723V18.5977H56.2899V27.8965H46.3665V0ZM88.1133 9.29883H79.4303V0H106.677V9.29883H97.9512V27.8965H88.1133V9.29883ZM110.997 0H121.306L127.636 9.82441L133.966 0H144.275V27.8965H134.437V14.0695L127.55 24.0961L120.664 14.0695V27.8965H110.997V0ZM149.151 0H158.989V18.6785H172.933V27.8965H149.151" fill="white"/>
<path d="M46.0242 190.424L31.9089 40.6723H187.091L172.976 190.343L109.372 207" fill="#E44D26"/>
<path d="M109.5 194.265V52.9629H172.933L160.828 180.721" fill="#F16529"/>
<path d="M60.7383 71.2775H109.5V89.6326H82.0395L83.8359 108.432H109.5V126.747H66.0422L60.7383 71.2775ZM66.8977 135.965H86.4023L87.7711 150.641L109.5 156.139V175.303L69.6352 164.791" fill="#EBEBEB"/>
<path d="M158.091 71.2775H109.415V89.6326H156.294L158.091 71.2775ZM154.541 108.432H109.415V126.788H133.368L131.101 150.641L109.415 156.139V175.222L149.194 164.791" fill="white"/>
</svg>
